<svg xmlns="http://www.w3.org/2000/svg" viewBox="0 0 1660 1320" font-family="Arial, sans-serif">

  <rect width="1660" height="1320" fill="#F8F9FA"/>

  <text x="830" y="36" text-anchor="middle" font-size="20" font-weight="bold" fill="#1A2B4A">Town Meeting Manager — Data Model</text>
  <text x="830" y="54" text-anchor="middle" font-size="12" fill="#6B7280">PERSON entity architecture · Supabase / PostgreSQL + PostGIS · Offline-first via PowerSync</text>
  <line x1="30" y1="64" x2="1630" y2="64" stroke="#CBD5E0" stroke-width="1"/>

  <!-- ════════ TOWN (top center anchor) ════════ -->
  <rect x="630" y="80" width="280" height="165" rx="6" fill="#1A2B4A" stroke="#0F1E38" stroke-width="2"/>
  <rect x="630" y="80" width="280" height="28" rx="6" fill="#0F1E38"/>
  <text x="770" y="99" text-anchor="middle" font-size="12" font-weight="bold" fill="white">TOWN</text>
  <text x="642" y="124" font-size="10" fill="#93C5FD">id (uuid PK)</text>
  <text x="642" y="140" font-size="10" fill="#E2E8F0">name · state · municipality_type</text>
  <text x="642" y="156" font-size="10" fill="#E2E8F0">population_range · contact_name/role</text>
  <text x="642" y="172" font-size="10" fill="#E2E8F0">meeting_formality · minutes_style</text>
  <text x="642" y="188" font-size="10" fill="#E2E8F0">presiding_officer_default · minutes_recorder</text>
  <text x="642" y="204" font-size="10" fill="#E2E8F0">subdomain · created_at · updated_at</text>
  <text x="642" y="220" font-size="10" fill="#FCA5A5">retention_ack · ack_date</text>

  <!-- ════════ PERSON (identity anchor) ════════ -->
  <rect x="40" y="80" width="260" height="120" rx="6" fill="#7C3AED" stroke="#5B21B6" stroke-width="2"/>
  <rect x="40" y="80" width="260" height="28" rx="6" fill="#5B21B6"/>
  <text x="170" y="99" text-anchor="middle" font-size="12" font-weight="bold" fill="white">PERSON (identity anchor)</text>
  <text x="52" y="124" font-size="10" fill="#DDD6FE">id (uuid PK)</text>
  <text x="52" y="140" font-size="10" fill="#EDE9FE">town_id (FK → TOWN)</text>
  <text x="52" y="156" font-size="10" fill="#EDE9FE">name · email (unique per town)</text>
  <text x="52" y="172" font-size="10" fill="#EDE9FE">created_at · archived_at</text>

  <!-- ════════ USER_ACCOUNT ════════ -->
  <rect x="40" y="230" width="260" height="155" rx="6" fill="#7C3AED" stroke="#5B21B6" stroke-width="2"/>
  <rect x="40" y="230" width="260" height="28" rx="6" fill="#5B21B6"/>
  <text x="170" y="249" text-anchor="middle" font-size="12" font-weight="bold" fill="white">USER_ACCOUNT</text>
  <text x="52" y="274" font-size="10" fill="#DDD6FE">id (uuid PK)</text>
  <text x="52" y="290" font-size="10" fill="#EDE9FE">person_id (FK → PERSON, unique)</text>
  <text x="52" y="306" font-size="10" fill="#EDE9FE">town_id (FK → TOWN)</text>
  <text x="52" y="322" font-size="10" fill="#EDE9FE">role (sys_admin/admin/staff/board_member)</text>
  <text x="52" y="338" font-size="10" fill="#EDE9FE">gov_title (display label only)</text>
  <text x="52" y="354" font-size="10" fill="#EDE9FE">permissions (JSONB: global + board overrides)</text>
  <text x="52" y="370" font-size="10" fill="#EDE9FE">auth_user_id (FK → auth.users) · archived_at</text>

  <!-- ════════ BOARD_MEMBER ════════ -->
  <rect x="40" y="415" width="260" height="155" rx="6" fill="#7C3AED" stroke="#5B21B6" stroke-width="2"/>
  <rect x="40" y="415" width="260" height="28" rx="6" fill="#5B21B6"/>
  <text x="170" y="434" text-anchor="middle" font-size="12" font-weight="bold" fill="white">BOARD_MEMBER</text>
  <text x="52" y="459" font-size="10" fill="#DDD6FE">id (uuid PK)</text>
  <text x="52" y="475" font-size="10" fill="#EDE9FE">person_id (FK → PERSON)</text>
  <text x="52" y="491" font-size="10" fill="#EDE9FE">board_id (FK → BOARD)</text>
  <text x="52" y="507" font-size="10" fill="#EDE9FE">town_id (FK → TOWN)</text>
  <text x="52" y="523" font-size="10" fill="#EDE9FE">seat_title · term_start · term_end</text>
  <text x="52" y="539" font-size="10" fill="#EDE9FE">status (active/archived)</text>
  <text x="52" y="555" font-size="10" fill="#EDE9FE">is_default_rec_sec (bool)</text>

  <!-- ════════ RESIDENT_ACCOUNT (Phase 2) ════════ -->
  <rect x="40" y="600" width="260" height="130" rx="6" fill="#7C3AED" stroke="#5B21B6" stroke-width="2" stroke-dasharray="5,3"/>
  <rect x="40" y="600" width="260" height="28" rx="6" fill="#5B21B6"/>
  <text x="170" y="619" text-anchor="middle" font-size="12" font-weight="bold" fill="white">RESIDENT_ACCOUNT</text>
  <text x="52" y="644" font-size="10" fill="#DDD6FE">id (uuid PK)</text>
  <text x="52" y="660" font-size="10" fill="#EDE9FE">person_id (FK → PERSON, unique)</text>
  <text x="52" y="676" font-size="10" fill="#EDE9FE">town_id (FK → TOWN)</text>
  <text x="52" y="692" font-size="10" fill="#EDE9FE">parcel_match · topic_tags (text[])</text>
  <text x="52" y="708" font-size="10" fill="#EDE9FE">channel_prefs (JSONB) · created_at</text>

  <!-- PERSON → children arrows -->
  <line x1="170" y1="200" x2="170" y2="230" stroke="#A78BFA" stroke-width="2"/>
  <text x="176" y="218" font-size="9" fill="#A78BFA">0..1</text>
  <line x1="170" y1="385" x2="170" y2="415" stroke="#A78BFA" stroke-width="2"/>
  <text x="176" y="403" font-size="9" fill="#A78BFA">0..many</text>
  <line x1="170" y1="570" x2="170" y2="600" stroke="#A78BFA" stroke-width="2" stroke-dasharray="5,3"/>
  <text x="176" y="588" font-size="9" fill="#A78BFA">0..1</text>

  <!-- ════════ BOARD ════════ -->
  <rect x="340" y="280" width="260" height="170" rx="6" fill="#1A5C3A" stroke="#0D3D26" stroke-width="2"/>
  <rect x="340" y="280" width="260" height="28" rx="6" fill="#0D3D26"/>
  <text x="470" y="299" text-anchor="middle" font-size="12" font-weight="bold" fill="white">BOARD</text>
  <text x="352" y="324" font-size="10" fill="#86EFAC">id (uuid PK)</text>
  <text x="352" y="340" font-size="10" fill="#D1FAE5">town_id (FK → TOWN)</text>
  <text x="352" y="356" font-size="10" fill="#D1FAE5">name · board_type · is_governing_board</text>
  <text x="352" y="372" font-size="10" fill="#D1FAE5">member_count · election_method</text>
  <text x="352" y="388" font-size="10" fill="#D1FAE5">officer_election_method</text>
  <text x="352" y="404" font-size="10" fill="#D1FAE5">district_based · staggered_terms</text>
  <text x="352" y="420" font-size="10" fill="#D1FAE5">meeting_formality_override</text>
  <text x="352" y="436" font-size="10" fill="#D1FAE5">minutes_style_override · archived_at</text>

  <!-- PERSON → TOWN -->
  <line x1="300" y1="130" x2="630" y2="130" stroke="#60A5FA" stroke-width="1.5" stroke-dasharray="5,3"/>

  <!-- TOWN → BOARD -->
  <line x1="630" y1="180" x2="600" y2="360" stroke="#60A5FA" stroke-width="1.5" stroke-dasharray="5,3"/>
  <text x="595" y="270" font-size="9" fill="#60A5FA">1:many</text>

  <!-- BOARD_MEMBER → BOARD -->
  <line x1="300" y1="490" x2="340" y2="400" stroke="#34D399" stroke-width="1.5"/>
  <text x="308" y="440" font-size="9" fill="#34D399">many:1</text>

  <!-- ════════ MEETING ════════ -->
  <rect x="630" y="310" width="270" height="170" rx="6" fill="#6B2D0E" stroke="#4A1E09" stroke-width="2"/>
  <rect x="630" y="310" width="270" height="28" rx="6" fill="#4A1E09"/>
  <text x="765" y="329" text-anchor="middle" font-size="12" font-weight="bold" fill="white">MEETING</text>
  <text x="642" y="354" font-size="10" fill="#FDBA74">id (uuid PK)</text>
  <text x="642" y="370" font-size="10" fill="#FED7AA">board_id (FK → BOARD) · town_id (FK)</text>
  <text x="642" y="386" font-size="10" fill="#FED7AA">title · scheduled_date · scheduled_time</text>
  <text x="642" y="402" font-size="10" fill="#FED7AA">location · meeting_type</text>
  <text x="642" y="418" font-size="10" fill="#FED7AA">status (draft/noticed/open/adjourned/</text>
  <text x="642" y="432" font-size="10" fill="#FED7AA">          minutes_draft/approved)</text>
  <text x="642" y="448" font-size="10" fill="#FED7AA">started_at · ended_at</text>
  <text x="642" y="464" font-size="10" fill="#FED7AA">created_by (FK → USER_ACCOUNT)</text>

  <!-- BOARD → MEETING -->
  <line x1="600" y1="380" x2="630" y2="380" stroke="#60A5FA" stroke-width="1.5"/>
  <text x="610" y="374" font-size="9" fill="#60A5FA">1:many</text>

  <!-- ════════ MEETING_ATTENDANCE ════════ -->
  <rect x="340" y="490" width="260" height="130" rx="6" fill="#6B2D0E" stroke="#4A1E09" stroke-width="2"/>
  <rect x="340" y="490" width="260" height="28" rx="6" fill="#4A1E09"/>
  <text x="470" y="509" text-anchor="middle" font-size="12" font-weight="bold" fill="white">MEETING_ATTENDANCE</text>
  <text x="352" y="534" font-size="10" fill="#FDBA74">id (uuid PK)</text>
  <text x="352" y="550" font-size="10" fill="#FED7AA">meeting_id (FK) · board_member_id (FK)</text>
  <text x="352" y="566" font-size="10" fill="#FED7AA">person_id (FK) · town_id (FK)</text>
  <text x="352" y="582" font-size="10" fill="#FED7AA">status (present/absent/excused/remote)</text>
  <text x="352" y="598" font-size="10" fill="#FED7AA">is_recording_secretary (bool)</text>
  <text x="352" y="614" font-size="10" fill="#FED7AA">arrived_at · departed_at</text>

  <!-- MEETING → ATTENDANCE -->
  <line x1="630" y1="430" x2="600" y2="530" stroke="#FB923C" stroke-width="1.5"/>
  <text x="604" y="478" font-size="9" fill="#FB923C">1:many</text>

  <!-- ════════ AGENDA_ITEM ════════ -->
  <rect x="960" y="310" width="270" height="170" rx="6" fill="#4A1A6B" stroke="#31104A" stroke-width="2"/>
  <rect x="960" y="310" width="270" height="28" rx="6" fill="#31104A"/>
  <text x="1095" y="329" text-anchor="middle" font-size="12" font-weight="bold" fill="white">AGENDA_ITEM</text>
  <text x="972" y="354" font-size="10" fill="#D8B4FE">id (uuid PK)</text>
  <text x="972" y="370" font-size="10" fill="#EDE9FE">meeting_id (FK → MEETING)</text>
  <text x="972" y="386" font-size="10" fill="#EDE9FE">town_id (FK) · section_type</text>
  <text x="972" y="402" font-size="10" fill="#EDE9FE">sort_order · title · description</text>
  <text x="972" y="418" font-size="10" fill="#EDE9FE">presenter · estimated_duration</text>
  <text x="972" y="434" font-size="10" fill="#EDE9FE">status (draft/published/in_progress/</text>
  <text x="972" y="448" font-size="10" fill="#EDE9FE">           complete/tabled/continued)</text>
  <text x="972" y="464" font-size="10" fill="#EDE9FE">parent_item_id (FK, self-ref)</text>

  <!-- MEETING → AGENDA_ITEM -->
  <line x1="900" y1="400" x2="960" y2="400" stroke="#FB923C" stroke-width="1.5"/>
  <text x="920" y="394" font-size="9" fill="#FB923C">1:many</text>

  <!-- ════════ MOTION ════════ -->
  <rect x="960" y="520" width="270" height="140" rx="6" fill="#4A1A6B" stroke="#31104A" stroke-width="2"/>
  <rect x="960" y="520" width="270" height="28" rx="6" fill="#31104A"/>
  <text x="1095" y="539" text-anchor="middle" font-size="12" font-weight="bold" fill="white">MOTION</text>
  <text x="972" y="564" font-size="10" fill="#D8B4FE">id (uuid PK)</text>
  <text x="972" y="580" font-size="10" fill="#EDE9FE">agenda_item_id (FK) · meeting_id (FK)</text>
  <text x="972" y="596" font-size="10" fill="#EDE9FE">town_id (FK) · motion_text · motion_type</text>
  <text x="972" y="612" font-size="10" fill="#EDE9FE">moved_by (FK → BOARD_MEMBER)</text>
  <text x="972" y="628" font-size="10" fill="#EDE9FE">seconded_by (FK, nullable)</text>
  <text x="972" y="644" font-size="10" fill="#EDE9FE">status (pending/passed/failed/tabled/withdrawn)</text>

  <!-- AGENDA_ITEM → MOTION -->
  <line x1="1095" y1="480" x2="1095" y2="520" stroke="#C084FC" stroke-width="1.5"/>
  <text x="1102" y="504" font-size="9" fill="#C084FC">1:many</text>

  <!-- ════════ VOTE_RECORD ════════ -->
  <rect x="960" y="700" width="270" height="115" rx="6" fill="#4A1A6B" stroke="#31104A" stroke-width="2"/>
  <rect x="960" y="700" width="270" height="28" rx="6" fill="#31104A"/>
  <text x="1095" y="719" text-anchor="middle" font-size="12" font-weight="bold" fill="white">VOTE_RECORD</text>
  <text x="972" y="744" font-size="10" fill="#D8B4FE">id (uuid PK)</text>
  <text x="972" y="760" font-size="10" fill="#EDE9FE">motion_id (FK → MOTION)</text>
  <text x="972" y="776" font-size="10" fill="#EDE9FE">board_member_id (FK → BOARD_MEMBER)</text>
  <text x="972" y="792" font-size="10" fill="#EDE9FE">vote (yes/no/abstain/absent/recused)</text>
  <text x="972" y="808" font-size="10" fill="#EDE9FE">recusal_reason · created_at</text>

  <!-- MOTION → VOTE_RECORD -->
  <line x1="1095" y1="660" x2="1095" y2="700" stroke="#C084FC" stroke-width="1.5"/>
  <text x="1102" y="684" font-size="9" fill="#C084FC">1:many</text>

  <!-- ════════ EXHIBIT ════════ -->
  <rect x="1280" y="310" width="250" height="145" rx="6" fill="#374151" stroke="#1F2937" stroke-width="2"/>
  <rect x="1280" y="310" width="250" height="28" rx="6" fill="#1F2937"/>
  <text x="1405" y="329" text-anchor="middle" font-size="12" font-weight="bold" fill="white">EXHIBIT</text>
  <text x="1292" y="354" font-size="10" fill="#D1D5DB">id (uuid PK)</text>
  <text x="1292" y="370" font-size="10" fill="#D1D5DB">agenda_item_id (FK → AGENDA_ITEM)</text>
  <text x="1292" y="386" font-size="10" fill="#D1D5DB">town_id (FK) · title</text>
  <text x="1292" y="402" font-size="10" fill="#D1D5DB">file_storage_path · file_type · file_size</text>
  <text x="1292" y="418" font-size="10" fill="#D1D5DB">exhibit_type (staff_report/plan/legal)</text>
  <text x="1292" y="434" font-size="10" fill="#D1D5DB">visibility (public/board_only/admin_only)</text>
  <text x="1292" y="450" font-size="10" fill="#D1D5DB">uploaded_by (FK) · sort_order</text>

  <!-- AGENDA_ITEM → EXHIBIT -->
  <line x1="1230" y1="380" x2="1280" y2="380" stroke="#9CA3AF" stroke-width="1.5"/>
  <text x="1248" y="374" font-size="9" fill="#9CA3AF">1:many</text>

  <!-- ════════ MINUTES_DOCUMENT ════════ -->
  <rect x="630" y="530" width="285" height="145" rx="6" fill="#4A1A6B" stroke="#31104A" stroke-width="2"/>
  <rect x="630" y="530" width="285" height="28" rx="6" fill="#31104A"/>
  <text x="772" y="549" text-anchor="middle" font-size="12" font-weight="bold" fill="white">MINUTES_DOCUMENT</text>
  <text x="642" y="574" font-size="10" fill="#D8B4FE">id (uuid PK)</text>
  <text x="642" y="590" font-size="10" fill="#EDE9FE">meeting_id (FK → MEETING, unique)</text>
  <text x="642" y="606" font-size="10" fill="#EDE9FE">town_id (FK) · status (draft/review/approved)</text>
  <text x="642" y="622" font-size="10" fill="#EDE9FE">content_json (JSONB) · html_rendered</text>
  <text x="642" y="638" font-size="10" fill="#EDE9FE">generated_by (manual/ai/hybrid)</text>
  <text x="642" y="654" font-size="10" fill="#EDE9FE">approved_at · approved_by_motion_id (FK)</text>
  <text x="642" y="670" font-size="10" fill="#EDE9FE">pdf_storage_path</text>

  <!-- MEETING → MINUTES_DOCUMENT -->
  <line x1="765" y1="480" x2="772" y2="530" stroke="#C084FC" stroke-width="1.5"/>
  <text x="780" y="510" font-size="9" fill="#C084FC">1:1</text>

  <!-- ════════ MINUTES_SECTION ════════ -->
  <rect x="630" y="710" width="285" height="120" rx="6" fill="#4A1A6B" stroke="#31104A" stroke-width="2"/>
  <rect x="630" y="710" width="285" height="28" rx="6" fill="#31104A"/>
  <text x="772" y="729" text-anchor="middle" font-size="12" font-weight="bold" fill="white">MINUTES_SECTION</text>
  <text x="642" y="754" font-size="10" fill="#D8B4FE">id (uuid PK)</text>
  <text x="642" y="770" font-size="10" fill="#EDE9FE">minutes_document_id (FK)</text>
  <text x="642" y="786" font-size="10" fill="#EDE9FE">section_type · sort_order · title</text>
  <text x="642" y="802" font-size="10" fill="#EDE9FE">content_json (JSONB)</text>
  <text x="642" y="818" font-size="10" fill="#EDE9FE">source_agenda_item_id (FK)</text>

  <!-- MINUTES_DOCUMENT → MINUTES_SECTION -->
  <line x1="772" y1="675" x2="772" y2="710" stroke="#C084FC" stroke-width="1.5"/>
  <text x="780" y="696" font-size="9" fill="#C084FC">1:many</text>

  <!-- ════════ AGENDA_TEMPLATE ════════ -->
  <rect x="1280" y="490" width="250" height="110" rx="6" fill="#1A5C3A" stroke="#0D3D26" stroke-width="2"/>
  <rect x="1280" y="490" width="250" height="28" rx="6" fill="#0D3D26"/>
  <text x="1405" y="509" text-anchor="middle" font-size="12" font-weight="bold" fill="white">AGENDA_TEMPLATE</text>
  <text x="1292" y="534" font-size="10" fill="#86EFAC">id (uuid PK)</text>
  <text x="1292" y="550" font-size="10" fill="#D1FAE5">board_id (FK → BOARD)</text>
  <text x="1292" y="566" font-size="10" fill="#D1FAE5">town_id (FK) · name · is_default</text>
  <text x="1292" y="582" font-size="10" fill="#D1FAE5">sections (JSONB)</text>
  <text x="1292" y="598" font-size="10" fill="#D1FAE5">created_at · updated_at</text>

  <!-- ════════ PERMISSION_TEMPLATE ════════ -->
  <rect x="1280" y="630" width="250" height="110" rx="6" fill="#374151" stroke="#1F2937" stroke-width="2"/>
  <rect x="1280" y="630" width="250" height="28" rx="6" fill="#1F2937"/>
  <text x="1405" y="649" text-anchor="middle" font-size="12" font-weight="bold" fill="white">PERMISSION_TEMPLATE</text>
  <text x="1292" y="674" font-size="10" fill="#D1D5DB">id (uuid PK)</text>
  <text x="1292" y="690" font-size="10" fill="#D1D5DB">town_id (FK) · name · description</text>
  <text x="1292" y="706" font-size="10" fill="#D1D5DB">permissions (JSONB)</text>
  <text x="1292" y="722" font-size="10" fill="#D1D5DB">is_system_default (bool)</text>
  <text x="1292" y="738" font-size="10" fill="#D1D5DB">created_at</text>

  <!-- ════════ NOTIFICATION_EVENT ════════ -->
  <rect x="340" y="750" width="260" height="110" rx="6" fill="#0E4A6B" stroke="#0A3350" stroke-width="2"/>
  <rect x="340" y="750" width="260" height="28" rx="6" fill="#0A3350"/>
  <text x="470" y="769" text-anchor="middle" font-size="12" font-weight="bold" fill="white">NOTIFICATION_EVENT</text>
  <text x="352" y="794" font-size="10" fill="#7DD3FC">id (uuid PK)</text>
  <text x="352" y="810" font-size="10" fill="#BAE6FD">town_id (FK) · event_type</text>
  <text x="352" y="826" font-size="10" fill="#BAE6FD">payload (JSONB) · status</text>
  <text x="352" y="842" font-size="10" fill="#BAE6FD">created_at · processed_at</text>

  <!-- ════════ NOTIFICATION_DELIVERY ════════ -->
  <rect x="340" y="890" width="260" height="120" rx="6" fill="#0E4A6B" stroke="#0A3350" stroke-width="2"/>
  <rect x="340" y="890" width="260" height="28" rx="6" fill="#0A3350"/>
  <text x="470" y="909" text-anchor="middle" font-size="12" font-weight="bold" fill="white">NOTIFICATION_DELIVERY</text>
  <text x="352" y="934" font-size="10" fill="#7DD3FC">id (uuid PK)</text>
  <text x="352" y="950" font-size="10" fill="#BAE6FD">event_id (FK → NOTIFICATION_EVENT)</text>
  <text x="352" y="966" font-size="10" fill="#BAE6FD">subscriber_id (FK) · channel (email/sms)</text>
  <text x="352" y="982" font-size="10" fill="#BAE6FD">status · external_id · error_message</text>
  <text x="352" y="998" font-size="10" fill="#BAE6FD">created_at · delivered_at</text>

  <!-- NOTIFICATION_EVENT → DELIVERY -->
  <line x1="470" y1="860" x2="470" y2="890" stroke="#38BDF8" stroke-width="1.5"/>
  <text x="478" y="878" font-size="9" fill="#38BDF8">1:many</text>

  <!-- ════════ AUDIT_LOG ════════ -->
  <rect x="40" y="760" width="260" height="110" rx="6" fill="#374151" stroke="#1F2937" stroke-width="2"/>
  <rect x="40" y="760" width="260" height="28" rx="6" fill="#1F2937"/>
  <text x="170" y="779" text-anchor="middle" font-size="12" font-weight="bold" fill="white">AUDIT_LOG</text>
  <text x="52" y="804" font-size="10" fill="#D1D5DB">id (uuid PK)</text>
  <text x="52" y="820" font-size="10" fill="#D1D5DB">town_id (FK) · user_account_id (FK)</text>
  <text x="52" y="836" font-size="10" fill="#D1D5DB">action · entity_type · entity_id</text>
  <text x="52" y="852" font-size="10" fill="#D1D5DB">details (JSONB) · created_at</text>

  <!-- ════════ PHASE 2/3 ENTITIES (dashed borders) ════════ -->

  <!-- ════════ WARRANT_ARTICLE ════════ -->
  <rect x="1280" y="780" width="250" height="125" rx="6" fill="#7A4A0A" stroke="#52300A" stroke-width="2" stroke-dasharray="5,3"/>
  <rect x="1280" y="780" width="250" height="28" rx="6" fill="#52300A"/>
  <text x="1405" y="799" text-anchor="middle" font-size="12" font-weight="bold" fill="white">WARRANT_ARTICLE</text>
  <text x="1288" y="818" font-size="9" fill="#FDE68A">extends AGENDA_ITEM (Phase 2)</text>
  <text x="1292" y="836" font-size="10" fill="#FEF3C7">article_number · legal_text</text>
  <text x="1292" y="852" font-size="10" fill="#FEF3C7">fiscal_impact · fiscal_note</text>
  <text x="1292" y="868" font-size="10" fill="#FEF3C7">selectboard_recommendation</text>
  <text x="1292" y="884" font-size="10" fill="#FEF3C7">budget_committee_recommendation</text>
  <text x="1292" y="900" font-size="10" fill="#FEF3C7">outcome · amendment_text</text>

  <!-- ════════ STRAW_POLL (Phase 2) ════════ -->
  <rect x="1280" y="930" width="250" height="110" rx="6" fill="#7A4A0A" stroke="#52300A" stroke-width="2" stroke-dasharray="5,3"/>
  <rect x="1280" y="930" width="250" height="28" rx="6" fill="#52300A"/>
  <text x="1405" y="949" text-anchor="middle" font-size="12" font-weight="bold" fill="white">STRAW_POLL</text>
  <text x="1288" y="968" font-size="9" fill="#FDE68A">Phase 2</text>
  <text x="1292" y="986" font-size="10" fill="#FEF3C7">agenda_item_id (FK) · town_id (FK)</text>
  <text x="1292" y="1002" font-size="10" fill="#FEF3C7">question · options (JSONB)</text>
  <text x="1292" y="1018" font-size="10" fill="#FEF3C7">status · opens_at · closes_at</text>
  <text x="1292" y="1034" font-size="10" fill="#FEF3C7">responses (STRAW_POLL_RESPONSE table)</text>

  <!-- ════════ PARCEL (Phase 3) ════════ -->
  <rect x="40" y="910" width="260" height="130" rx="6" fill="#065F46" stroke="#064E3B" stroke-width="2" stroke-dasharray="5,3"/>
  <rect x="40" y="910" width="260" height="28" rx="6" fill="#064E3B"/>
  <text x="170" y="929" text-anchor="middle" font-size="12" font-weight="bold" fill="white">PARCEL</text>
  <text x="48" y="948" font-size="9" fill="#6EE7B7">Phase 3 — Maine GeoLibrary / PostGIS</text>
  <text x="52" y="966" font-size="10" fill="#A7F3D0">id · town_id · state_id · map_bk_lot</text>
  <text x="52" y="982" font-size="10" fill="#A7F3D0">geometry (PostGIS polygon)</text>
  <text x="52" y="998" font-size="10" fill="#A7F3D0">owner1 · owner2 · prop_loc</text>
  <text x="52" y="1014" font-size="10" fill="#A7F3D0">land_val · bldg_val · land_use</text>
  <text x="52" y="1030" font-size="10" fill="#A7F3D0">geocode · imported_at</text>

  <!-- ════════ E911_ADDRESS (Phase 3) ════════ -->
  <rect x="40" y="1070" width="260" height="100" rx="6" fill="#065F46" stroke="#064E3B" stroke-width="2" stroke-dasharray="5,3"/>
  <rect x="40" y="1070" width="260" height="28" rx="6" fill="#064E3B"/>
  <text x="170" y="1089" text-anchor="middle" font-size="12" font-weight="bold" fill="white">E911_ADDRESS</text>
  <text x="48" y="1108" font-size="9" fill="#6EE7B7">Phase 3 — linked to PARCEL via state_id</text>
  <text x="52" y="1126" font-size="10" fill="#A7F3D0">id · town_id · state_id · map_bk_lot</text>
  <text x="52" y="1142" font-size="10" fill="#A7F3D0">address · latitude · longitude</text>
  <text x="52" y="1158" font-size="10" fill="#A7F3D0">zipcode · building · unit</text>

  <!-- PARCEL → E911_ADDRESS -->
  <line x1="170" y1="1040" x2="170" y2="1070" stroke="#34D399" stroke-width="1.5" stroke-dasharray="5,3"/>
  <text x="178" y="1058" font-size="9" fill="#34D399">1:many</text>

  <!-- ════════ SUBSCRIBER_NOTIFICATION_PREFERENCE ════════ -->
  <rect x="630" y="870" width="285" height="115" rx="6" fill="#0E4A6B" stroke="#0A3350" stroke-width="2"/>
  <rect x="630" y="870" width="285" height="28" rx="6" fill="#0A3350"/>
  <text x="772" y="889" text-anchor="middle" font-size="11" font-weight="bold" fill="white">SUBSCRIBER_NOTIFICATION_PREF</text>
  <text x="642" y="914" font-size="10" fill="#7DD3FC">id (uuid PK)</text>
  <text x="642" y="930" font-size="10" fill="#BAE6FD">person_id (FK → PERSON)</text>
  <text x="642" y="946" font-size="10" fill="#BAE6FD">town_id (FK) · channel (email/sms)</text>
  <text x="642" y="962" font-size="10" fill="#BAE6FD">event_type · enabled (bool)</text>
  <text x="642" y="978" font-size="10" fill="#BAE6FD">consent_timestamp · consent_method</text>

  <!-- ════════ TOWN_NOTIFICATION_CONFIG ════════ -->
  <rect x="630" y="1015" width="285" height="95" rx="6" fill="#0E4A6B" stroke="#0A3350" stroke-width="2"/>
  <rect x="630" y="1015" width="285" height="28" rx="6" fill="#0A3350"/>
  <text x="772" y="1034" text-anchor="middle" font-size="11" font-weight="bold" fill="white">TOWN_NOTIFICATION_CONFIG</text>
  <text x="642" y="1059" font-size="10" fill="#7DD3FC">id (uuid PK) · town_id (FK, unique)</text>
  <text x="642" y="1075" font-size="10" fill="#BAE6FD">postmark_server_token (encrypted)</text>
  <text x="642" y="1091" font-size="10" fill="#BAE6FD">postmark_sender_email/name</text>
  <text x="642" y="1107" font-size="10" fill="#BAE6FD">twilio config (Phase 2)</text>

  <!-- ══════════════ LEGEND ══════════════ -->
  <rect x="40" y="1190" width="1580" height="100" rx="6" fill="white" stroke="#E5E7EB" stroke-width="1.5"/>
  <text x="60" y="1212" font-size="11" font-weight="bold" fill="#374151">Legend</text>

  <!-- Relationship types -->
  <line x1="60" y1="1230" x2="110" y2="1230" stroke="#60A5FA" stroke-width="1.5"/>
  <text x="116" y="1234" font-size="10" fill="#374151">Foreign key (direct)</text>
  <line x1="60" y1="1250" x2="110" y2="1250" stroke="#60A5FA" stroke-width="1.5" stroke-dasharray="5,3"/>
  <text x="116" y="1254" font-size="10" fill="#374151">Indirect / derived relationship</text>
  <line x1="60" y1="1270" x2="110" y2="1270" stroke="#A78BFA" stroke-width="2"/>
  <text x="116" y="1274" font-size="10" fill="#374151">PERSON → child entity (identity link)</text>

  <!-- Domain colors -->
  <rect x="380" y="1222" width="12" height="12" rx="2" fill="#7C3AED"/>
  <text x="398" y="1233" font-size="10" fill="#374151">PERSON identity domain</text>
  <rect x="380" y="1242" width="12" height="12" rx="2" fill="#1A5C3A"/>
  <text x="398" y="1253" font-size="10" fill="#374151">Board / template domain</text>
  <rect x="380" y="1262" width="12" height="12" rx="2" fill="#6B2D0E"/>
  <text x="398" y="1273" font-size="10" fill="#374151">Meeting / attendance domain</text>

  <rect x="600" y="1222" width="12" height="12" rx="2" fill="#4A1A6B"/>
  <text x="618" y="1233" font-size="10" fill="#374151">Agenda / motion / minutes domain</text>
  <rect x="600" y="1242" width="12" height="12" rx="2" fill="#0E4A6B"/>
  <text x="618" y="1253" font-size="10" fill="#374151">Notification domain</text>
  <rect x="600" y="1262" width="12" height="12" rx="2" fill="#374151"/>
  <text x="618" y="1273" font-size="10" fill="#374151">Utility (exhibit, auth, audit, permissions)</text>

  <rect x="880" y="1222" width="12" height="12" rx="2" fill="#7A4A0A"/>
  <text x="898" y="1233" font-size="10" fill="#374151">Warrant / civic engagement (Phase 2)</text>
  <rect x="880" y="1242" width="12" height="12" rx="2" fill="#065F46"/>
  <text x="898" y="1253" font-size="10" fill="#374151">Parcel / GIS (Phase 3)</text>
  <rect x="880" y="1262" width="12" height="12" rx="2" fill="#1A2B4A"/>
  <text x="898" y="1273" font-size="10" fill="#374151">TOWN (anchor entity, all tables have town_id)</text>

  <!-- Phase indicators -->
  <text x="1180" y="1233" font-size="10" fill="#374151">Solid border = Phase 1 (MVP)</text>
  <rect x="1160" y="1242" width="12" height="12" rx="2" fill="none" stroke="#52300A" stroke-width="2" stroke-dasharray="5,3"/>
  <text x="1180" y="1253" font-size="10" fill="#374151">Dashed border = Phase 2/3 (future)</text>

  <!-- Footer -->
  <line x1="40" y1="1298" x2="1620" y2="1298" stroke="#CBD5E0" stroke-width="1"/>
  <text x="830" y="1314" text-anchor="middle" font-size="10" fill="#9CA3AF">All tables include town_id for Row Level Security (RLS) · Multi-tenant · PowerSync bidirectional offline sync · Supabase Auth handles sessions</text>

</svg>
